<?xml version="1.0" encoding="iso-8859-1"?>
<!-- Generator: Adobe Illustrator 19.0.0, SVG Export Plug-In . SVG Version: 6.00 Build 0)  -->
<svg version="1.1" id="Layer_1" xmlns="http://www.w3.org/2000/svg" xmlns:xlink="http://www.w3.org/1999/xlink" x="0px" y="0px"
	 viewBox="0 0 505 505" style="enable-background:new 0 0 505 505;" xml:space="preserve">
<circle style="fill:#90DFAA;" cx="252.5" cy="252.5" r="252.5"/>
<path style="fill:#324A5E;" d="M366.7,426.7h-238c-1.4,0-2.6-1.2-2.6-2.6V80.9c0-1.4,1.2-2.6,2.6-2.6h238c1.4,0,2.6,1.2,2.6,2.6
	v343.2C369.3,425.5,368.1,426.7,366.7,426.7z"/>
<rect x="154.3" y="114.6" style="fill:#FFFFFF;" width="186.8" height="258.4"/>
<g>
	<circle style="fill:#2B3B4E;" cx="247.7" cy="397.5" r="13.1"/>
	<path style="fill:#2B3B4E;" d="M291.4,102.4h-57.7c-3,0-5.5-2.4-5.5-5.5l0,0c0-3,2.4-5.5,5.5-5.5h57.7c3,0,5.5,2.4,5.5,5.5l0,0
		C296.8,100,294.4,102.4,291.4,102.4z"/>
	<path style="fill:#2B3B4E;" d="M213.2,102.4H204c-3,0-5.5-2.4-5.5-5.5l0,0c0-3,2.4-5.5,5.5-5.5h9.2c3,0,5.5,2.4,5.5,5.5l0,0
		C218.7,100,216.2,102.4,213.2,102.4z"/>
</g>
<g>
	<rect x="175" y="275.3" style="fill:#E6E9EE;" width="145.3" height="11.2"/>
	<rect x="175" y="298.8" style="fill:#E6E9EE;" width="145.3" height="11.2"/>
	<rect x="175" y="322.3" style="fill:#E6E9EE;" width="86.1" height="11.2"/>
</g>
<path style="fill:#4CDBC4;" d="M289.7,199.1c0,26-21,47-47,47s-47-21-47-47s21-47,47-47v47H289.7z"/>
<path style="fill:#FF7058;" d="M300.3,188.5h-47v-47C279.2,141.5,300.3,162.5,300.3,188.5z"/>
<g>
</g>
<g>
</g>
<g>
</g>
<g>
</g>
<g>
</g>
<g>
</g>
<g>
</g>
<g>
</g>
<g>
</g>
<g>
</g>
<g>
</g>
<g>
</g>
<g>
</g>
<g>
</g>
<g>
</g>
</svg>
